<?xml version="1.0" encoding="UTF-8"?>
<svg width="490px" height="128px" viewBox="0 0 490 128" version="1.1" xmlns="http://www.w3.org/2000/svg" xmlns:xlink="http://www.w3.org/1999/xlink">
    <title>横版</title>
    <g id="-----4.4-分页器-/-Pagination-" stroke="none" stroke-width="1" fill="none" fill-rule="evenodd">
        <g id="横版" fill="#396AFF" fill-rule="nonzero">
            <path d="M159.37998,70.8241339 L169.150649,39.4162627 L178.920678,70.8241339 L159.37998,70.8241339 Z M173.158013,26.5331653 L165.142646,26.5331653 L160.929793,26.5331653 L136.270424,102.239047 L149.607391,102.239047 L155.650443,82.8135764 L182.650855,82.8135764 L188.693268,102.239047 L202.030234,102.239047 L177.370866,26.5331653 L173.158013,26.5331653 Z" id="Fill-1"></path>
            <polygon id="Fill-2" points="282.28825 32.3046009 270.298167 32.3046009 270.298167 44.0699895 261.69962 44.0699895 261.69962 56.0600722 270.298167 56.0600722 270.298167 101.710088 282.28825 101.710088 282.28825 56.0600722 290.886797 56.0600722 290.886797 44.0699895 282.28825 44.0699895"></polygon>
            <polygon id="Fill-3" points="358.628844 101.709703 370.618287 101.709703 370.618287 45.5464405 358.628844 45.5464405"></polygon>
            <path d="M242.500572,77.4216881 L242.500572,79.1052928 C242.500572,86.1303418 236.785278,91.8456359 229.760229,91.8456359 C222.73518,91.8456359 217.019886,86.1303418 217.019886,79.1052928 L217.019886,77.4216881 L217.084542,44.0293398 L205.095099,44.0293398 L205.159755,77.4216881 L205.159755,79.1052928 C205.159755,92.6701541 216.195368,103.705767 229.760229,103.705767 C243.32445,103.705767 254.360064,92.6701541 254.360064,79.1052928 L254.360064,77.4216881 L254.425359,44.0293398 L242.435277,44.0293398 L242.500572,77.4216881 Z" id="Fill-4"></path>
            <path d="M464.316974,89.5008162 C457.010898,89.5008162 451.088194,82.8348935 451.088194,71.3210853 C451.088194,60.3578095 457.010898,53.1413545 464.316974,53.1413545 C471.623691,53.1413545 477.663543,60.3213207 477.663543,71.3210853 C477.663543,83.186338 471.623691,89.5008162 464.316974,89.5008162 L464.316974,89.5008162 Z M489.652985,81.4649642 L489.652985,44.1132639 L477.663543,44.1132639 L477.663543,50.2830673 C473.386675,45.5260836 467.588161,42.8342364 461.248716,42.8342364 C448.273437,42.8342364 437.755708,54.1425552 437.755708,71.3210853 C437.755708,89.3631831 448.273437,99.8079342 461.248716,99.8079342 C467.588161,99.8079342 473.386675,97.4393648 477.663543,92.8552226 L477.663543,99.0013403 L477.673785,99.0013403 L477.673785,102.317338 C477.673785,109.271329 472.015465,114.92965 465.060833,114.92965 C458.106201,114.92965 452.448521,109.271329 452.448521,102.317338 L440.333608,102.317338 C440.333608,115.951976 451.425555,127.044563 465.060833,127.044563 C478.696111,127.044563 489.788698,115.951976 489.788698,102.317338 L489.788698,81.4649642 L489.652985,81.4649642 Z" id="Fill-6"></path>
            <path d="M364.623694,23.9025808 C360.286651,23.9025808 356.770285,27.4189462 356.770285,31.7566291 C356.770285,36.0936718 360.286651,39.6100373 364.623694,39.6100373 C368.961376,39.6100373 372.477742,36.0936718 372.477742,31.7566291 C372.477742,27.4189462 368.961376,23.9025808 364.623694,23.9025808" id="Fill-8"></path>
            <path d="M411.649976,42.1184803 L408.940204,42.1184803 C402.541226,42.1184803 392.943398,46.7295089 392.943398,55.564273 L392.943398,46.6552511 L380.953956,46.6552511 L380.953956,101.543968 L392.943398,101.543968 L392.943398,67.1741043 C392.943398,59.6132465 399.073512,53.4837728 406.63437,53.4837728 C413.4136,53.4837728 418.909321,58.9794941 418.909321,65.758724 L418.909321,101.709767 L432.175231,101.709767 L432.175231,62.6437351 C432.175231,51.3078897 422.985181,42.1184803 411.649976,42.1184803" id="Fill-10"></path>
            <path d="M328.774435,42.1184803 L326.064663,42.1184803 C320.249505,42.1184803 312.794913,44.9473205 310.779068,51.4743297 L310.779068,22.3838157 L298.788985,22.3838157 L298.788985,101.286626 L310.779068,101.286626 L310.779068,62.842823 C312.592624,57.406636 317.713215,53.4837728 323.758189,53.4837728 C330.538059,53.4837728 336.03378,58.9794941 336.03378,65.758724 L336.03378,101.709767 L349.299689,101.709767 L349.299689,62.6437351 C349.299689,51.3078897 340.10964,42.1184803 328.774435,42.1184803" id="Fill-12"></path>
            <path d="M54.8029654,114.434043 C28.9292248,100.801965 11.2865831,73.6491971 11.2865831,42.3712771 C11.2865831,41.580687 11.3057877,40.794578 11.3281931,40.0097494 L54.8100071,13.4945745 L98.2783779,40.0097494 C98.3001431,40.794578 98.3199879,41.580687 98.3199879,42.3712771 C98.3199879,73.6491971 80.6767061,100.801965 54.8029654,114.434043 M109.300548,33.9359691 L109.300548,33.9359691 L54.8100071,0.698538022 L0.305382915,33.9359691 C0.277216143,34.9205258 0.253530449,35.9057227 0.253530449,36.8966809 C0.253530449,76.1048275 22.3689275,110.141171 54.8029654,127.230079 C87.2370033,110.141171 109.3524,76.1048275 109.3524,36.8966809 C109.3524,35.9057227 109.328715,34.9205258 109.300548,33.9359691" id="Fill-14"></path>
            <path d="M64.5359294,29.1919805 L54.88881,47.1073278 L66.0121243,67.389324 L54.8836888,84.9269805 L43.7558934,67.389324 L54.8792077,47.1073278 L45.4350171,29.0927567 L21.2365593,45.0313087 L21.2365593,46.9159218 C21.2365593,71.3294713 34.9685007,92.5108839 55.1627959,103.10223 C75.3577313,92.4212623 89.0896727,71.2398498 89.0896727,46.9159218 C89.0896727,46.2885709 89.0896727,45.6599398 89.0896727,45.0313087 L64.5359294,29.1919805 Z" id="Fill-16"></path>
        </g>
    </g>
</svg>